<svg id="Layer_1" data-name="Layer 1" xmlns="http://www.w3.org/2000/svg" xmlns:xlink="http://www.w3.org/1999/xlink" viewBox="0 0 771.68 555.58"><defs><style>.cls-1{fill:none;}.cls-2{fill:#777;}.cls-3{fill:#fff;}.cls-4{fill:#2364aa;}.cls-5{fill:#d1a33e;}.cls-6{fill:url(#linear-gradient);}.cls-7{fill:url(#linear-gradient-2);}.cls-8{fill:url(#linear-gradient-3);}.cls-9{fill:url(#linear-gradient-4);}.cls-10{fill:url(#linear-gradient-5);}.cls-11{fill:url(#linear-gradient-6);}.cls-12{fill:url(#linear-gradient-7);}.cls-13{fill:url(#linear-gradient-8);}.cls-14{fill:url(#linear-gradient-9);}.cls-15{fill:url(#linear-gradient-10);}.cls-16{fill:url(#linear-gradient-11);}.cls-17{fill:url(#linear-gradient-12);}.cls-18{fill:url(#linear-gradient-13);}.cls-19{font-size:60px;fill:#dfbb24;font-family:TimesNewRomanPSMT, Times New Roman;}</style><linearGradient id="linear-gradient" x1="494.01" y1="1196.65" x2="764.18" y2="1196.65" gradientTransform="matrix(1, 0, 0, -1, 0, 1491.56)" gradientUnits="userSpaceOnUse"><stop offset="0" stop-color="#fff"/><stop offset="0.49" stop-color="#dfbb24"/></linearGradient><linearGradient id="linear-gradient-2" x1="402.61" y1="1457.61" x2="492.01" y2="1457.61" xlink:href="#linear-gradient"/><linearGradient id="linear-gradient-3" x1="469.37" y1="1421.03" x2="526.11" y2="1421.03" xlink:href="#linear-gradient"/><linearGradient id="linear-gradient-4" x1="525.19" y1="1439.73" x2="559.41" y2="1439.73" xlink:href="#linear-gradient"/><linearGradient id="linear-gradient-5" x1="499.57" y1="1453.08" x2="519.9" y2="1453.08" xlink:href="#linear-gradient"/><linearGradient id="linear-gradient-6" x1="3.42" y1="1202.59" x2="270.38" y2="1202.59" gradientTransform="matrix(1, 0, 0, -1, 0, 1491.56)" gradientUnits="userSpaceOnUse"><stop offset="0.51" stop-color="#dfbb24"/><stop offset="1" stop-color="#fff"/></linearGradient><linearGradient id="linear-gradient-7" x1="199.95" y1="1384.27" x2="208.23" y2="1384.27" xlink:href="#linear-gradient-6"/><linearGradient id="linear-gradient-8" x1="272.37" y1="1458.61" x2="359.58" y2="1458.61" xlink:href="#linear-gradient-6"/><linearGradient id="linear-gradient-9" x1="240.15" y1="1421.42" x2="294.97" y2="1421.42" xlink:href="#linear-gradient-6"/><linearGradient id="linear-gradient-10" x1="208.19" y1="1440.1" x2="243.75" y2="1440.1" xlink:href="#linear-gradient-6"/><linearGradient id="linear-gradient-11" x1="241.89" y1="1454.95" x2="266.85" y2="1454.95" xlink:href="#linear-gradient-6"/><linearGradient id="linear-gradient-12" x1="173.67" y1="1344.7" x2="178.32" y2="1344.7" xlink:href="#linear-gradient-6"/><linearGradient id="linear-gradient-13" x1="234.13" y1="1417.13" x2="240.15" y2="1417.13" xlink:href="#linear-gradient-6"/></defs><title>Boat Guide - Logo Light</title><line class="cls-1" x1="298.67" y1="388.08" x2="431.57" y2="388.3"/><polygon class="cls-2" points="431.57 388.42 298.67 388.2 298.67 387.95 431.57 388.17 431.57 388.42"/><path class="cls-3" d="M236.15,347.65V353c-.08-.31,1.23-.12,1.23-.44v-3.9Z"/><path class="cls-4" d="M563.3,355.13l-140.47-1.92c.08-.26.17-.5.25-.75a9.75,9.75,0,0,0-1.7-.21l-.21.5H396.12c1.56-2.43,2.35-4.71,3.94-6,10-8,20.19-15.81,30.38-23.59,1.22-.94,3-2.09,4.31-1.85,16.83,3.08,33.69,6,50.38,9.76,11.34,2.53,22.49,6,33.61,9.44,10.44,3.23,19.94,9.59,31.53,9,2.38-.11,4.82,1.19,6.37,1.61-4.85-7.2-10.38-14.59-15.08-22.48Q482.1,228.64,423,128.41c-6.58-11.17-15.76-21.32-16.22-35.39,0-.77-1-1.54-1.55-2.25-1.19-1.46-2.77-2.72-3.58-4.36a43,43,0,0,1-2.15-6.71l-.65.22c3.05,17.14,6.1,34.27,9.27,52.05-3.21-2.41-.94-9.15-7.8-7.37-.64-2.46-.5-6.6-2.37-7.94-2.41-1.72-2.15-3.22-2.08-5.22.89-25.14,1.84-50.27,2.58-75.41.05-1.67-1.48-3.39-2.27-5.09-1.11,1.73-2.77,3.33-3.19,5.21-.56,2.48-.14,5.18-.14,7.79l-1.22.47-4.2-4.69c-.82,2.92-2.23,5.21-1.83,7.12.82,3.88-.74,6.53-2.67,9.5C374.77,68.79,366,80.79,359.06,93.79c-21.9,41.28-43.19,82.87-60.75,126.29-10.6,26.2-22.48,51.88-33.42,77.94-2.17,5.17-5,7.72-10.52,7.59-1.12,0-2.27,1.2-3.41,1.85,1.14.57,2.27,1.58,3.44,1.62a62.63,62.63,0,0,0,7.73-.76c-9,13.65-17.51,26.47-26,39.29l1.23,1c1.08-1.37,2.25-2.68,3.24-4.11,7.46-10.83,15-21.62,22.24-32.58a8.87,8.87,0,0,1,7.16-4.45q46.44-4.41,92.87-8.93L376,297.27c3.51-.34,7.78.51,8.34-5.52,1,2.09,1.43,4.31,2.22,4.44,3.33.57,2.62,2.9,2.67,4.94q.58,23.47,1.13,47c0,1.44-.12,2.89-.18,4.24h-25.4v-11.8a15.31,15.31,0,0,1,2.09-.46c2.23-.23,5-.45,3.95-3.51-.48-1.43-2.79-2.75-4.51-3.16-2.19-.53-4.63-.07-7-.09-10-.09-20-.32-30-.17-1.48,0-2.93,1.75-4.39,2.68a26.41,26.41,0,0,0,2.79,3.79c.6.58,1.79.56,2.52.76v11.85c-16.84,0-33.29-.05-49.75,0-13.33.05-26.66.18-40,.47-1.72,0-4.62,1-4.91,2.07-1.12,4.15-2.67,8.36.07,12.82,3.24,5.26,6.85,10.25,12.79,12.09a202,202,0,0,0,26.56,6.48c8,1.33,16.15,1.33,23.63,1.87v51c-6.83.89-10.28,3.35-12.23,8.24-1.8,4.48-.7,6.22,4,6.25l152,1.06h6a14.65,14.65,0,0,0,.31-2.37c-.29-4.69-6.3-10.32-12.88-11.35-3.23-.51-4.28-1.87-4.15-4.83.07-1.5-.09-3-.09-4.5V388.27c2.7-.48,6.27-1.34,9.89-1.71,17.9-1.82,35.82-3.32,53.7-5.28a205.62,205.62,0,0,0,52.74-12.84c6.4-2.5,11.23-7,15.82-11.71ZM388.57,67.63v5.45c-2.25.12-4.37.38-6.47.3s-3.92-.43-5.86-.79C377.61,65.85,378,65.71,388.57,67.63ZM376,80.25c3.54,1,7.49.48,11.65.67v5.43H368.21C369.41,81.41,370.78,78.79,376,80.25ZM368.93,94c5.62.9,11.51.21,17.68.21v6h-26c1.12-5.76,3.44-7,8.32-6.21Zm-8,13.65c8.37.65,16.82.18,25.48.18v6.51H353.25c.6-5.53,2.68-7.08,7.65-6.69ZM282.88,302.79l-.12-1.63c31.92-4.85,63.92-8.78,96.39-7.87ZM384.24,201.34l-75,2.87c.63-7.12.64-7,7.85-7.29,17.93-.65,35.85-1.49,53.78-2,4.28-.14,8.59.48,13.34.78Zm.22-14.66-68.29,2c.89-7.44,1-7.3,7.57-7.38,18.13-.2,36.25-.61,54.37-.9,2,0,3.93.2,6.35.33Zm.09-14H323.21c.47-5.23,2.25-7.13,7.91-6.86,11.77.57,23.6-.19,35.41-.34,5.94-.07,11.89,0,18,0Zm.15-14.81H329.88l2.74-6.66H384.7Zm.41-14.8H337.59c.51-1.82.75-2.9,1.13-3.93s.9-2.1,1.15-2.67h45.24Zm.43-14.3H345.32c1.07-5.72,2.81-7.69,8.2-7.06,8.52,1,17.2.56,25.82.72h6.2ZM387.68,280c-2.49-67.6-2.14-135.17,2.34-201-.77,65.9-1.55,133.46-2.34,201Zm8-159.5,2.24-.47c1.14,5.15,2.32,10.29,3.41,15.45,1.92,9.11,4,18.2,5.66,27.35,7.44,40.08,14.93,80.14,22.07,120.27,1.95,11,2.82,22.12,4,33.2a4.84,4.84,0,0,1-1.34,3.73c-11.4,9.11-22.92,18.06-35.19,27.66-2-76.3-3.6-151.72-.82-227.16Zm29.39,319.34H304.81V395.37l.65-.2c.53,1.48,1,3,1.6,4.44,5.71,14.25,17.73,19.33,31.62,20.7C355.82,422,372,417,388,411.63A115.57,115.57,0,0,0,425.07,391Z"/><path class="cls-3" d="M325.08,335.86a10.1,10.1,0,0,1,3.7-2.56c2.06-.7,36.29-.07,36.29-.07s4.2.65,5.42,2.63.9,2,0,3.32-5.63,1.39-5.63,1.39l-34.47-.16a3.06,3.06,0,0,1-2.52-.76C327,338.61,325.31,337,325.08,335.86Z"/><path class="cls-3" d="M562.52,355.21l-142.13-2.34L364,352.51l-34.47-.13-91.42.74c-3.91,0-3.22,1.82-3.22,1.82l328.1,1.93Z"/><path class="cls-3" d="M563.52,356.87l-329.1-1.94-.12-.32a1.54,1.54,0,0,1,.19-1.35c.52-.75,1.69-1.14,3.5-1.15l91.42-.74,34.47.13,56.45.36,142.5,2.39Zm-328.3-2.93,327,1.92-.16-.63-141.74-2.37-56.44-.36-34.51-.1-91.42.74c-1.88,0-2.48.44-2.66.7A.36.36,0,0,0,235.22,353.94Z"/><path class="cls-3" d="M298.09,438.69l6.14.66H424.49l7.16-.66s.37,1,3.58,1.84-143.74,0-143.74,0S295.74,438.4,298.09,438.69Z"/><line class="cls-1" x1="556.64" y1="351.15" x2="560.02" y2="354.53"/><rect class="cls-3" x="558.27" y="350.49" width="0.15" height="4.78" transform="translate(-85.99 498.17) rotate(-45)"/><line class="cls-1" x1="298.67" y1="388.08" x2="431.57" y2="388.3"/><polygon class="cls-2" points="431.57 388.42 298.67 388.2 298.67 387.95 431.57 388.17 431.57 388.42"/><path class="cls-5" d="M91.32,411.79l-.58.58.83.63C91.5,412.56,91.41,412.16,91.32,411.79Z"/><path class="cls-6" d="M753.32,391.73c-8.7-12.61-23.31-19.59-35.87-20.54-13.45-1-29.23,5.22-37.4,20.08-2.61,4.75-5.93,9.1-7.82,15.57a16.45,16.45,0,0,1-1,7.76c-1.24-1.69-2.85-3.23-3.56-5.11-.37-1,.83-2.58,1.31-3.91,1.35,1,2.69,2,3.26,1.26-4.16-10.44-.26-18.21,1.23-26.29.93-5.07.71-10.34,1-15.52,5.46.63,10.9,1.42,16.37,1.82a18.34,18.34,0,0,0,6.75-.85c14-4.52,28.75-7.35,40.28-17.7,6.29-5.65,13-10.47,21.79-12.22,4.67-.93,6.25-10.37,2.2-13.06-5.3-3.53-11.73-5.43-16.89-9.14-22.82-16.4-45.21-11.77-58.16,12.73-3.42,6.47-5.81,13.47-8.35,21.25h0v0a9,9,0,0,1-1.73,4c-.6-.88-1.87-2.24-1.65-2.55a13,13,0,0,1,3-2.5l.33,1c-2.23-12.38-4.26-23.71-5.87-35.11-.24-1.7,1.08-4.72,2.48-5.36a65.06,65.06,0,0,1,13.73-4.48c16.39-3.37,30.42-11.17,41.27-23.62,3.26-3.74,5.82-6.85,10.67-8.28,3.27-1,9.21-.42,7.61-6.52a18,18,0,0,0-5.94-9.37c-4.44-3.35-9.59-6.58-14.9-7.72-9.38-2-20.93-6.14-28.23-2.57-8.55,4.19-18.57,11.35-20.87,23.33-1.13,5.91-3,11.66-4.33,17.54a41.19,41.19,0,0,0-.45,6.66c-1.4-1.71-3.34-3.21-4.09-5.17-2-5.25-2.56-11.29-5.45-15.91-3.35-5.34,1.59-10.89-2.38-16.36-2.44-3.36-1.36-9.26-1.86-14-1.49-.13-4.08.14-4.29-.44-4.07-11.29-7.74-22.72-11.75-34-2-5.6,1.8-6.1,5.46-8.1,7.89-4.31,17.17-8.09,22.38-14.81,7.94-10.23,11.24-24,24-30.7,1-.5,1.16-5,.08-6.36-5-6.11-29.48-7.07-37.28-3.67-15.27,6.65-18,19.51-19,33.69-.27,3.72,0,7.49-.34,11.19-.14,1.49-1.38,2.87-2.13,4.3-1.17-.74-2.83-1.21-3.44-2.27-4.17-7.25-8.5-14.44-12-22-2.16-4.7-5-9.44,3.55-13.11,7.21-3.11,13.07-9.76,18.94-15.45,6.63-6.43,7.48-17.16,16.29-22.37,1.63-1,2.62-6.84,1.92-7.28-9.32-5.82-19.44-10.32-30.6-6.77-9.9,3.15-17.8,9.26-19.14,20.6-.62,5.16,0,10.46-.3,15.67-.12,2-.74,4.92-2.07,5.61-1.6.84-5,.57-6.24-.64-4.26-4.14-7.45-9.44-11.94-13.24-3.76-3.18-2.57-3.34.63-5.85,14.92-11.71,25.64-26.76,32.75-44.34.68-1.7,1.47-4.44.65-5.48-4.67-6-28.83-6.3-32.21.45-4,8-12.8,14.79-8.84,26.11,1.36,3.89-.12,8.86-.78,13.26-.1.62-3.53,1.69-4.4,1.09-4.35-3-9.29-5.89-12.19-10.08-2.26-3.27-3.91-11-2.29-12.27,11.27-9,13.53-23.11,20.83-34.23,1.45-2.19,1.64-5.2,2.41-7.84-3.66-1-7.34-2.86-11-2.72-3.89.15-7.73,2.09-11.54,3.42-11.68,4.1-16.5,13.26-13.8,25.49,1,4.47,1.34,9.07,2,13.61C550,89.21,545.74,87,541.42,85c-5.15-2.38-10.4-4.56-10.76-11.41L526,75c-.12,1.49.13,4.1-.43,4.29-12.91,4.31-19.58,14.45-24.95,26-2,4.38-4.42,8.6-6.65,12.89,4.52-.58,9-1.37,13.56-1.68,6-.42,12-.7,18-.61,9.44.12,11,3.55,5.92,11.92-1.26,2.06-2.15,4.34-3.39,6.41-5.65,9.45-4.17,11.89,8,13.91,2.26.37,4.38,1.86,6.45,3,9.56,5.41,20,6,28.84.49,6.54-4,13.71,1.68,20.46-4.56,3.34-3.08,11.1,4.45,11.09,11.28,0,7.73-5,5.08-9.93,3.87-3.41-.84-7.84.41-11.25,2A202.15,202.15,0,0,0,557.54,177c-4.24,2.7-7.3,7.24-10.88,11,4.38,1.11,8.89,1.91,13.1,3.48,1.82.68,2.81,3.31,4.57,4.46,14.39,9.41,28.84,19.45,46.77,19.4,6.24,0,12.45,10.78,18.69.4,3.72,4.64,7.55,9.21,11.1,14,.86,1.15.79,3,1.14,4.52-1.73.19-4.14,1.23-5.09.45-16.11-13.15-32.45-9.33-48.69-.67-4.55,2.43-8.43,6.12-12.62,9.24,4.13,2.87,8.37,5.59,12.32,8.69,2.32,1.82,4.87,3.91,6.12,6.46,7.65,15.51,22.74,22,37.17,26.3,7.61,2.27,14.21,6.05,21.47,8.57,4.27,1.48,5.86,4.15,4.32,9.17-1,3.37.27,7.43.3,11.18a19.62,19.62,0,0,1-1,4.4c-1.16-.85-3.13-1.52-3.37-2.58-3-13.08-10.74-20.76-24.1-23.16-5.09-.92-31.3-1.44-35.88.24-9.85,3.61-10.55,9.49-3.42,18.25,4.7,5.79,11,10.66,12.23,19.07.51,3.37,4,6.21,5.88,9.46,8,13.9,20.38,22.93,34.53,29.15,7.79,3.41,12.71,9.51,11.67,16.07-1.8,11.4,1.45,24.66-9.11,33.79.41,3.72,5.08,8.12-1.7,10.7l-3.15,6.07c.41,3.72,5.08,8.11-1.37,11.72h0v0a9,9,0,0,1-1.74,4c-.59-.88-1.86-2.25-1.65-2.55a13.89,13.89,0,0,1,3.06-2.51l.33,1c-.74-4.74-5.41-9.14,1.37-11.72l3.15-6.07c-.41-3.72-5.08-8.12,1.7-10.7-.36-3-1.18-6.06-1-9.05,1.15-20.52-15.53-39.67-35.91-40-8.28-.15-17.25,4.12-24.74,2.07-12.66-3.45-9.64,3.86-6.14,8.14,9.3,11.39,12.16,25.15,17,38.27,1.5,4.05,5.14,7.29,7.63,11s4.5,7.87,7.31,11.36c3.26,4.06,8.23,7,10.56,11.48,5.1,9.71,6-4.31,8.47-1.24,2.26,2.85,5,7.63,4.07,10.34-6.59,18.83-17.19,35.63-28.63,51.87-.73,1-3,1-4.5,1.53l-.39.77a25.53,25.53,0,0,0-2.44,6.34h0v0a9,9,0,0,1-1.73,4c-.6-.88-1.87-2.24-1.65-2.55a13.3,13.3,0,0,1,3.05-2.5c.14.42.27.85.33,1a25.53,25.53,0,0,1,2.44-6.34l.39-.77c3.1-7.2,6-14.48,9.33-21.61,7.74-16.81-1.41-49.17-18-57.58-11.9-6.06-25.8-8.76-39.05-12.06-5.14-1.3-6.1,2.67-3.75,9.06a50.44,50.44,0,0,1,3,15.9c.41,15.41.18,30.88,6.48,45.37,5.24,12.05,10.85,23.93,16.54,35.77.25.54,3.7.54,4.38-.28,5.78-6.93,6.64,1.76,6.1,2.66a115.32,115.32,0,0,1-6.89,9.57c10.88-.26,21.75-.12,32.63.17,8.52-13.12,19.11-24.42,24.66-39,2.79-7.34,9.09-8.94,15.28-5.77,13.77,7.06,28.85,4.3,42.18,2.8,18.83-2.12,37-10.53,55.31-16.66,5.29-1.77,2.21-3.46-.52-5.7-2.18-1.77-3.28-5.07-4.41-7.87-5.87-14.48-18.92-23.47-31.21-28.55-16.84-7-33.26-.93-45.6,16.79-3.91,5.6-4.29,14.34-13.62,15l-.39.76a26.66,26.66,0,0,0-2.44,6.34h0v0a9.13,9.13,0,0,1-1.73,4c-.59-.88-1.87-2.24-1.65-2.55a13.19,13.19,0,0,1,3.06-2.51c.13.43.26.85.32,1a26.66,26.66,0,0,1,2.44-6.34l.39-.76c-.73-2.31-2.73-5.19-2-6.82,5.19-11.37,12.25-21.91,14.11-34.71.25-1.68,3-3.37,4.9-4.3,1-.51,2.85.6,4.31,1-2.17,4.26-6.09,9.26,4,6.52,4.31-1.18,9.2-.22,13.48-1.44,15-4.27,30.91-7.27,44.48-14.48a108.87,108.87,0,0,1,18.92-8.26c10.27-3.14,10.94-3.29,5.2-10.93C757.31,396.17,755,394.17,753.32,391.73Zm-70-36.4,2.16,1.12c-.22,1.14-.46,2.32-.7,3.5-.67-.36-1.88-.66-1.92-1.07a15.1,15.1,0,0,1,.55-3.55Zm-3.74-59.54c.54-.21,1.8,1.44,3.4,2.8-2.39,1.15-4.28,2.35-6.33,2.87-.65.16-1.76-1.51-2.66-2.34A35.09,35.09,0,0,1,679.58,295.79ZM646.09,189.4l2.16,1.12c-.23,1.14-.46,2.31-.7,3.49-.67-.35-1.89-.65-1.92-1.06A15.16,15.16,0,0,1,646.09,189.4Zm-90.24-77-3-3.45c1.1-.93,2.17-2.56,3.31-2.61,1.61-.07,3.28,1,4.92,1.62Zm60.82,37.23c-.2-.35.62-1.29,1-2l2.58,2.45-1.12,2.17a15.92,15.92,0,0,1-2.46-2.66ZM582.86,519.16a16.45,16.45,0,0,1-2.42-2.65c-.2-.35.61-1.29,1-2a14.85,14.85,0,0,1,2.43,2.64C584,517.53,583.21,518.48,582.86,519.16Zm70.93-32.6c.88.82,1.75,1.65,2.59,2.45l-1.12,2.16a15.21,15.21,0,0,1-2.43-2.64C652.63,488.18,653.41,487.23,653.79,486.56Zm25.48-63.92a15.94,15.94,0,0,1-2.42-2.64c-.21-.36.61-1.3,1-2l2.58,2.45Z"/><path class="cls-7" d="M410.76,15c23.93-7.54,48.59-2.17,67.32,9.35,8.09,5,10.2,11.37,12.51,18.75,2.87,9.22,2.23,7.56-9.92,11.1-25.67,7.48-43-6.16-60.43-20.76-2.24-1.89-3.91-4.45-5.87-6.68-3.23-3.7-13.1,3-11.61-6.53C403.21,17.38,410,15.48,410.76,15Z"/><path class="cls-8" d="M492.81,50c6.18-1.92,5.28,3.71,7.31,6.5,1.43,2,4.16,3,6.3,4.43L526.11,75c-6.68,3.37-13.88,3.81-20,10.68-8,8.91-22.17,2.38-33.22,5.75-.48.15-4.16-5.45-3.43-6.9,5.15-10.21,8-22.36,22.72-24.57C497.69,59.15,493.2,53.5,492.81,50Z"/><path class="cls-9" d="M544.91,33.26c3.77-.79,7.55-2.06,11.33-2.09,1.09,0,3.45,5,3.14,5.24-10.29,8.9-7.89,25.4-20.53,33.18-6.41,4-8.18,4.59-10.2-2.87-1.75-6.5-5.76-12.28-1.7-20.16C531.1,38.53,536.8,34.89,544.91,33.26Z"/><path class="cls-10" d="M513,16.79c2.31,1.71,5.26,2.77,6.19,4.77,3.21,6.87-4.69,35-10.53,38.56-.5.3-2.62-.74-2.82-1.47-3.18-11.68-11.72-23.3-1-35.29C506.73,21.21,509.35,19.67,513,16.79Z"/><path class="cls-11" d="M207.84,509.17c11.65-15.07,15.21-31.47,14.38-49.8-.34-7.51.84-15.1,1.54-22.64.43-4.58,1.27-9.13,1.93-13.69-5.84.35-12.07-.46-17.43,1.33-6.78,2.26-12.68,7-19.26,10-12.79,5.86-12.88,5.67-23.57,20.72-5.33,7.5-5.57,21.3-1.32,34.15,1,3.19.41,6.94,1.84,12.12l.64-.35c.46,1.12.93,2.24-.34,1.37,1,2.36,0,3.12-.16,3a23.6,23.6,0,0,1-2.19-2.89l1.79-1c-8.4-13.16-15-24.58-22.05-35.73-4-6.35-1.44-8.84,4-13.06,17.05-13.28,32.1-28.11,36.37-51.16,1.77-9.57,2.51-20.58,12.52-27.1,2.6-1.69.77-4.58-3-4.75s-7.68.42-11.24-.49c-13.78-3.55-25.57,4-37.13,8.33-7,2.6-10.86,13.61-16.07,20.89-2,2.75-3.76,5.64-5.63,8.47-1.26-3.62-3.13-7.14-3.65-10.86-.92-6.62-1.12-13.36-1.43-20.06-.13-2.82.23-5.65.37-8.48,1.92,1.55,5.09,4.77,5.57,4.41,7.91-5.92,15.44-12.33,23.12-18.56,17-13.74,22.5-35.29,35.34-51.87,2.68-3.46,2.18-8.46-3.55-8.63-21-.61-43.29-6-58.93,15-.91,1.22-4.62,1.5-6.25.67-1.33-.67-2.48-3.92-2-5.55,1.75-6.22,2-11.55,12-13.65,8.13-1.7,18.47-4.4,26.07-11.87,6.93-6.82,16.28-11,21.35-20.21,2.07-3.76,6.14-8.41,9.73-8.81,4.11-.46,8.9.89,8.26-4.45-.47-3.89-4-9.28-7.43-10.62-14.66-5.65-29.71-10.68-44.92-.69-2.63,1.73-6.35,1.8-9.57,2.64.66-3.07,1.45-6.11,1.94-9.2.91-5.84,3.89-6,9.63-6.58,12.58-1.22,27.12-2.08,36.76-8.89a301.81,301.81,0,0,1,36.07-22c7.33-3.77,4-7.66,1.19-10.32-4.86-4.54-10.43-9-16.54-11.35-10.12-3.86-20.87-9.53-31.43-.17-.73.65-3.17,0-4.4-.76-1-.59-1.31-2.24-1.94-3.41,11.06-.87,2.83-17.85,14.92-17.86l4.25-2.93c.13,1.43.27,2.87.4,4.3,14.71,5.71,29.56,8,45.21,3.44,4.84-1.41,10.37-.39,15.58-.65,8.12-.41,10.42-4.28,6.74-11.16-1.89-3.55-3.67-7.17-5.81-10.57-2-3.16-4.39-6.07-6.61-9.09,4.41-.76,8.78-1.8,13.21-2.19,5.19-.47,10.61-1.3,15.59-.3,8,1.62,8.13-4.76,8.07-8.43-.22-12.22-16.32-25-29.37-24.33-4.28.23-8.11,0-6.8-6-6.08,4-12.13,8-18.27,11.83a16.59,16.59,0,0,1-3.84,1.25c-.22-1.45-1.12-3.27-.55-4.3,5.72-10.67,2.87-20.84-1.13-31-1.55-.45-3.81-.41-4.52-1.44-7.44-10.87-16.78-6.63-25.86-3.3-1.34.49-3.19,3.39-2.79,4.25,5.67,12.31,5.77,28.25,19.37,35.49,8.64,4.6,5.8,9.78,9.67,16.34a40.88,40.88,0,0,1,4.68-.54c1,0,2.19,1.83-2.71,3.27,1.5,2.12-3.17,2.49-7.83,2.61a19,19,0,0,1-.42-3c-3.4,0-4.65.47-5.73,1.16-3.58,2.32-7,4.94-10.41,7.44-1-4.38-2.64-8.73-2.9-13.16-.17-3,2.44-6.22,2.23-9.23C182.58,86,178.27,79.13,172,73.65s-13.45.23-20.27-.32c-4.47-.36-9.27,3.22-13.92,5,2.37,3.36,7.25,7.27,6.66,10-2,9.24,5.92,11.45,9.2,17,4.45,7.46,9.25,12.37,17.88,13.91,1.24.22,2.35,4.73,2.4,7.27.13,6.93-4.89,11-9.45,15.23-1.32,1.22-2.85,2.2-4.29,3.29-.77-1.42-2-2.76-2.22-4.27a78.15,78.15,0,0,1-.63-8.91c-.7-13.74-9.74-26.8-20.2-28a73.58,73.58,0,0,0-20.16,0c-4.51.77-10.06,3.41-12.24,7-1.36,2.22,2,8.21,4.43,11.7,6.88,9.94,11.41,22.38,25.09,25.73,1,8.53,11.76,5.39,13.85,11,2.58,7-5,10.25-8.15,15.2-2.52,3.9-2.73,9.21-4.46,13.71-.65,1.67-2.69,2.8-4.1,4.18-1.15-2.13-3-4.16-3.29-6.39a21.1,21.1,0,0,1,.85-9c3.81-11.74-1.65-20.24-9.44-27.82-9-8.76-9.89-8.79-25.93-5.62-3.66.73-7.38,1.23-11,2.14-5.13,1.3-13.53,1.66-14.61,4.6-2.74,7.43,8.53,2.63,10,8.2.38,1.52,1.59,2.8,2.23,4.27,8.23,18.75,22.78,30.35,41.51,37.61,1.72.66,3.21,4.65,3,6.95-.32,3.93-1.24,8.29-3.38,11.48-3.16,4.7-7.61,8.54-11.51,12.74-1.08-4.38-2.59-8.7-3.18-13.14-3.61-27-25-36.69-46.23-25.6-6.8,3.55-13.17,7.94-19.74,11.94,5,4.45,10.18,8.75,15,13.43,1.65,1.61,2,4.63,3.62,6.2,6.05,5.67,11.22,12.29,20.41,14,8.67,1.59,19.27,2.49,25,7.93,7.06,6.74-3.48,15.76-3.27,24.13.15,5.92,3.78,11.91-1.08,17.48A7.07,7.07,0,0,1,98.26,289c-1.85-5.79-3.75-11.57-5.52-17.39-.43-1.41-.13-3.07-.69-4.39-1.76-4.06-3.77-8-5.69-12l-19.53-7.55C53,244.26,43,253.05,32.13,258.94c-4,2.15-9.51,5.11-10.27,8.58-1.53,7.06,6.57,4.57,10,7,4.28,3,9.82,5.19,12.52,9.25C55.18,300,72.56,304.5,89.14,304.66c9.29.1,9.37,5.4,9.16,8.24-.62,8.31-6.41,16-2.15,25.13.89,1.92-2,5.65-3.29,8.47-.21.45-1.27.51-1.94.76-.31-3,.08-6.24-1.08-8.82a104.42,104.42,0,0,0-9.19-17c-8.07-11.65-26.09-18.53-38.57-13.2-11.66,5-22.69,11.82-33.19,19-8.13,5.59-7,8,2.06,11.85,6.92,3,14.25,6.1,19.76,11,13.17,11.75,30.17,12.83,45.67,18,3,1,7.45-1.3,10.72-3s5.85-2.63,6.64,1.84c1.88,10.66,7.38,20.87,6.33,34l.24-.13c.47,1.11.94,2.23-.33,1.36,1,2.36,0,3.13-.16,3a22.63,22.63,0,0,1-2.19-2.89l1.72-.93c-4.43-6-7.27-10.37-10.4-14.49-1.79-2.36-3.79-5.25-6.34-6.23-15.68-6-30.95-9.13-47.1.65a107.06,107.06,0,0,0-26,22.14c-2.18,2.53-5.68,3.83-.39,5.68,8.29,2.81,17.57,3.76,25.29,7.7C65.14,432.6,65,432.9,99.72,432.4c2.22,0,6-.32,6.4.64,2.93,6.93,11.19,12.5,6.26,21.67l3.27,6a65.37,65.37,0,0,0,4.4,7.13l.94-.51c.47,1.12.93,2.24-.34,1.37,1,2.36,0,3.12-.16,3a23.52,23.52,0,0,1-2.18-2.89l1.74-.95a65.37,65.37,0,0,1-4.4-7.13l-3.24-5.94c-2.71-1.39-6-2.22-8-4.26-7.84-7.78-17.74-10.19-27.85-9.12-24.23,2.55-39.29,18.75-51.8,37.77-.58.89,2.27,5.77,4.07,6.15,5.59,1.17,12.7-.92,17,1.8,17,10.78,34.28,16.09,54.76,11.61,8.49-1.86,17.89.26,26.62-3.07,1.67-.63,5.29.2,6.12,1.53,5.75,9.32,11.34,18.74,18.49,29.12a130.89,130.89,0,0,0,29.09,5.45,185.13,185.13,0,0,1,19.48-6.19C204.2,520.86,204.28,513.79,207.84,509.17Zm-82.16-90.88a15.78,15.78,0,0,1-.53-3.55c0-.41,1.23-.73,1.9-1.1l.77,3.48Zm51.6,100.5a23.6,23.6,0,0,1-2.19-2.89l.66-.35c-.54-.65-1.23-1.42-2.12-2.33l1.36.4c-2.08-2.24-2.39-3-2.69-3.78,1.06,0,2.9-.3,3,.06a13,13,0,0,1,.36,3.93l-.71-.21c.42.45.91,1,1.48,1.53l1.3-.71,1.4,3.35c-1.07-1-2-1.88-2.7-2.64l-.72.4C178.11,518.42,177.41,518.91,177.28,518.79Z"/><path class="cls-12" d="M206.26,105.94c-2.1.35-4.2.8-6.27,1.29a2.8,2.8,0,0,0,0,1c1.93,0,4.56.12,8.25.43A19.48,19.48,0,0,1,206.26,105.94Z"/><path class="cls-13" d="M345.22,13.66c5.8,1.71,9.74,2.64,13.44,4.17.75.3,1.19,4,.72,4.23-14.17,8-22.43,23.52-38.58,29.2-14.81,5.2-29.4,6.42-44.61,2.7-4.07-1-4.27-2.16-3.41-6.14,4.28-19.9,17.38-30,36.15-34.83C321.86,9.72,334.62,7.56,345.22,13.66Z"/><path class="cls-14" d="M240.15,73.49l31.44-21c-1.49,7.93,5.94,5.33,9.11,7.79,5.93,4.6,16.19,5.53,13.95,17.14-.89,4.65-5.61,9.23-10,9.32-8.38.18-19.12,3.59-24.15-2.85C254.57,76.36,246.94,76.71,240.15,73.49Z"/><path class="cls-15" d="M210.41,54.6c2.14-4.67,2-8.9-1.18-13.33a7.92,7.92,0,0,1-.42-7c1-1.77,4.39-3.83,6-3.35C225,34,236.68,34.27,243.75,44.22l-8.23,27.86c-6.68-1.94-13.46-3.12-16.31-11.35C218.25,58,213.41,56.62,210.41,54.6Z"/><path class="cls-16" d="M263.5,45.69c-.61,1.1-1.8,5.08-4.45,7.41-1.76,1.55-4.54,6.32-8.75.31-6.71-9.57-5.3-20.81-8.39-31-.35-1.13,3.13-4.64,5.25-5.08,11.83-2.45,20.44,5,19.64,16.87C266.6,37.23,265.12,40.22,263.5,45.69Z"/><path class="cls-17" d="M178.32,146.09,174.06,149l-.39-4.3Z"/><path class="cls-18" d="M240.15,73.49l-6,3.27,1.37-4.64Z"/><path class="cls-1" d="M385.29,294.23l-1-2.28c-.18,5.9-6.28,5.25-6.28,5.25l-28.78,2.71"/><path class="cls-1" d="M386.09,295.93s0,.42,1.16.48,2.25,1.42,2,3.95S390.37,348,390.37,348l-.16,4-25.44-.19V340.57s5.7.44,6.41-2.7-5.67-5.05-7.23-4.66"/><polyline class="cls-1" points="361.88 333.18 363.38 333.18 357.32 332.96"/><text class="cls-19" transform="translate(241.89 525.16)">Boat Guide</text></svg>